<?xml version="1.0" encoding="utf-8"?>
<!-- Generator: Adobe Illustrator 25.3.1, SVG Export Plug-In . SVG Version: 6.00 Build 0)  -->
<svg version="1.1" id="Layer_1" xmlns="http://www.w3.org/2000/svg" xmlns:xlink="http://www.w3.org/1999/xlink" x="0px" y="0px"
	 viewBox="0 0 297.2 179.9" style="enable-background:new 0 0 297.2 179.9;" xml:space="preserve">
<style type="text/css">
	.st0{fill:#FFFFFF;}
</style>
<g>
	<path class="st0" d="M16.9,74.8l0,7.7l13.5-13.8h13.3L30.1,82.2l17.7,34.2h-12L22.3,90L17,95.2v21.1H6v-36
		C6,80.4,11.5,81.7,16.9,74.8"/>
	<path class="st0" d="M76.7,117.5c-6.7,0-12.1-2.2-16-6.6s-5.9-10.5-5.9-18.3s2-13.9,5.9-18.3c3.9-4.5,9.3-6.7,16-6.7
		s12.1,2.2,16,6.7c3.9,4.4,5.9,10.6,5.9,18.3s-2,13.9-5.9,18.3C88.9,115.2,83.5,117.5,76.7,117.5 M76.7,107c3.4,0,6.1-1.3,8.1-3.8
		s2.9-6.1,2.9-10.7c0-4.5-1-8.1-2.9-10.7c-2-2.6-4.7-3.9-8.1-3.9c-3.3,0-5.9,1.3-7.9,4c-2,2.7-3,6.2-3,10.7s1,8,2.9,10.6
		C70.7,105.7,73.4,107,76.7,107"/>
	<path class="st0" d="M139.4,116.3v-4.6c-3,3.8-7.2,5.7-12.5,5.7c-5,0-9.1-1.6-12.2-4.7c-3.2-3.1-4.8-8.1-4.8-14.9V68.6h10.9v27.3
		c0,7.4,3,11.1,9,11.1c6.4,0,9.6-3.6,9.6-10.9V68.6h10.9v47.7L139.4,116.3L139.4,116.3z"/>
	<path class="st0" d="M164.3,116.3V68.6h10.9v4.9c1.9-4,5.2-6.1,9.8-6.1c3.4,0,6.3,1.1,8.9,3.3l-1.6,10c-2.4-1.7-5.1-2.5-8.1-2.5
		c-2.5,0-4.6,0.9-6.4,2.6c-1.7,1.7-2.6,4.7-2.6,8.8v26.7L164.3,116.3L164.3,116.3z"/>
	<path class="st0" d="M220.7,117.5c-6.5,0-11.7-2.2-15.6-6.6s-5.7-10.5-5.7-18.3s1.9-13.9,5.7-18.3c3.8-4.5,9-6.7,15.6-6.7
		c9.8,0,16.2,4.4,19,13.2l-10.4,3.5c-1.6-4.1-4.3-6.2-8.2-6.2c-3.3,0-5.9,1.3-7.8,3.9s-2.8,6.2-2.8,10.7c0,4.4,0.9,7.9,2.8,10.5
		c1.8,2.6,4.3,3.9,7.4,3.9c4.4,0,7.3-2.3,8.7-6.9l10.5,3.2C237.1,112.7,230.7,117.5,220.7,117.5"/>
	<path class="st0" d="M270.9,117.5c-6.8,0-12.2-2.2-16.1-6.7s-5.9-10.6-5.9-18.3c0-7.7,2-13.8,6-18.3c4-4.5,9.3-6.7,16.1-6.7
		c6.1,0,11.1,1.9,15,5.7c3.9,3.8,5.8,9.4,5.8,16.7c0,2.6-0.1,4.8-0.4,6.7h-31.7c0.2,3.4,1.4,6.1,3.5,8.1s4.7,3.1,7.7,3.1
		c4.2,0,7.6-1.7,10.1-4.9l6.9,7.1C283.7,115,278.1,117.5,270.9,117.5 M259.8,87.6h21.1c-0.2-3.4-1.3-6-3.2-7.8
		c-1.9-1.8-4.1-2.7-6.8-2.7c-3.1,0-5.7,0.9-7.7,2.6C261.2,81.4,260,84,259.8,87.6"/>
	<path class="st0" d="M6,76v-3.9c2.7-0.3,4.2-1.1,4.5-6H6V55.9h10.9v6.3C16.9,71.9,13.3,75.7,6,76"/>
</g>
</svg>
